<svg t="1781956696589" class="icon" viewBox="0 0 1024 1024" version="1.1" xmlns="http://www.w3.org/2000/svg" p-id="12287" width="200" height="200"><path d="M512 512m-512 0a512 512 0 1 0 1024 0 512 512 0 1 0-1024 0Z" fill="#BCBEC5" opacity=".1" p-id="12288"></path><path d="M811.574857 658.358857a91.538286 91.538286 0 0 0-31.689143 12.818286 76.964571 76.964571 0 0 1-34.633143 20.918857 51.364571 51.364571 0 0 1 16.457143-30.573714 113.974857 113.974857 0 0 0 15.780572-37.046857 33.956571 33.956571 0 1 1 34.084571 33.883428z" fill="#327AE8" p-id="12289"></path><path d="M749.458286 577.042286a113.737143 113.737143 0 0 0-36.937143-15.945143 33.956571 33.956571 0 1 1 33.956571-33.956572c2.212571 11.300571 6.528 22.070857 12.690286 31.798858 9.874286 9.545143 17.005714 21.540571 20.717714 34.779428a51.254857 51.254857 0 0 1-30.336-16.676571h-0.128 0.036572z" fill="#55BD34" p-id="12290"></path><path d="M693.522286 457.380571c-10.24-85.741714-99.017143-152.905143-206.445715-152.905142-114.413714 0-207.524571 76.141714-207.524571 169.801142a158.774857 158.774857 0 0 0 74.148571 128.877715c7.222857 5.302857 14.774857 10.166857 22.637715 14.537143l-9.216 36.736c3.328 1.554286 6.546286 3.218286 9.929143 4.644571l46.482285-23.222857c6.802286 1.755429 13.933714 2.889143 21.028572 4.096 4.534857 0.804571 9.051429 1.645714 13.714285 2.194286 28.982857 3.657143 58.386286 1.956571 86.765715-4.992 0.877714 12.580571 3.163429 25.014857 6.838857 37.065142-21.248 4.992-42.971429 7.533714-64.786286 7.570286a281.673143 281.673143 0 0 1-58.203428-6.4l-84.333715 42.093714a18.614857 18.614857 0 0 1-20.187428-2.102857 18.870857 18.870857 0 0 1-6.509715-19.273143l15.085715-60.763428a196.772571 196.772571 0 0 1-91.117715-161.060572c0-114.633143 109.805714-207.542857 245.266286-207.542857 128.603429 0 233.947429 83.858286 244.205714 190.445715a165.083429 165.083429 0 0 0-17.828571-1.755429 166.235429 166.235429 0 0 0-19.949714 1.938286z" fill="#327AE8" p-id="12291"></path><path d="M615.186286 591.250286a91.483429 91.483429 0 0 0 31.689143-12.818286 76.964571 76.964571 0 0 1 34.651428-20.882286 51.474286 51.474286 0 0 1-16.493714 30.537143 114.102857 114.102857 0 0 0-15.780572 37.065143 33.956571 33.956571 0 1 1-34.066285-33.901714z" fill="#F9D036" p-id="12292"></path><path d="M676.352 672.932571a113.609143 113.609143 0 0 0 36.809143 16.091429 33.956571 33.956571 0 1 1-33.956572 33.956571 92.050286 92.050286 0 0 0-12.562285-31.817142 77.238857 77.238857 0 0 1-20.571429-34.907429 51.2 51.2 0 0 1 30.281143 16.877714v-0.182857z" fill="#F1671F" p-id="12293"></path></svg>
