<svg xmlns="http://www.w3.org/2000/svg" width="200" height="200" viewBox="0 0 1024 1024"><path d="M512 0c282.752 0 512 229.248 512 512s-229.248 512-512 512S0 794.752 0 512 229.248 0 512 0z m127.530667 213.333333h-106.666667v409.984a85.162667 85.162667 0 0 1-85.205333 85.12 85.162667 85.162667 0 0 1-85.290667-85.12 85.205333 85.205333 0 0 1 115.285333-79.573333V434.346667A190.890667 190.890667 0 0 0 256 622.72a191.018667 191.018667 0 0 0 381.952-0.170667v-206.506666a246.784 246.784 0 0 0 143.530667 45.653333h0.853333V356.053333A142.677333 142.677333 0 0 1 639.530667 213.333333z" fill="#130A17"/></svg>
